<svg width="16" height="16" version="1.1" viewBox="0 0 16 16" xmlns="http://www.w3.org/2000/svg"><path d="m 8.3833777,1.4235917 1.4332446,3.4528166 a 1.6311977,1.6311977 35.946707 0 0 1.3803817,1.0009454 l 3.805992,0.2952926 a 0.40648537,0.40648537 72.315452 0 1 0.228783,0.7175381 l -2.963558,2.4696312 a 1.5561796,1.5561796 107.46966 0 0 -0.505104,1.6049484 l 0.973766,3.570472 A 0.3933659,0.3933659 143.2719 0 1 12.150097,14.97306 L 8.8499027,12.92694 a 1.6129032,1.6129032 0 0 0 -1.6998054,0 L 3.8499027,14.97306 A 0.3933659,0.3933659 36.728103 0 1 3.2631174,14.535236 L 4.2368826,10.964764 A 1.5561796,1.5561796 72.530345 0 0 3.7317787,9.3598156 L 0.76822128,6.8901844 A 0.40648537,0.40648537 107.68455 0 1 0.99700371,6.1726463 L 4.8029963,5.8773537 A 1.6311977,1.6311977 144.05329 0 0 6.1833777,4.8764083 L 7.6166223,1.4235917 a 0.41509434,0.41509434 0 0 1 0.7667554,0 z"/></svg>
